<svg version="1.1" id="Layer_1" xmlns="http://www.w3.org/2000/svg" xmlns:xlink="http://www.w3.org/1999/xlink" x="0px" y="0px"
	 width="100%" viewBox="5 5 224 159" xml:space="preserve">
<path fill="#1F4D3A" stroke="#1F4D3A" stroke-width="0.5" stroke-linejoin="round" 
	d="
M117.876160,86.994820 
	C118.409126,111.720482 118.942093,136.446152 119.490372,161.882141 
	C108.134148,161.882141 97.540352,161.882141 86.482971,161.528687 
	C86.014206,160.795746 86.009033,160.416275 86.003860,160.036804 
	C88.679184,158.180634 91.354507,156.324448 94.512917,154.671387 
	C96.797897,154.560303 98.599792,154.246094 100.401695,153.931885 
	C99.608246,152.289734 98.814796,150.647568 98.021355,149.005402 
	C99.450035,142.178482 97.197227,136.655075 92.209770,131.970917 
	C86.266769,126.389328 80.516838,120.600227 74.510513,115.089294 
	C72.866692,113.581055 70.603630,112.747734 68.318306,111.035248 
	C68.112396,107.333832 68.533630,104.417816 72.459190,103.861664 
	C79.261772,109.853088 86.064354,115.844513 93.007469,122.428864 
	C93.771416,123.331490 94.394829,123.641190 95.018250,123.950882 
	C97.384193,126.028320 99.750130,128.105759 101.928238,130.648773 
	C101.250175,132.394287 100.691719,133.657562 100.369102,134.978455 
	C100.334641,135.119553 102.116570,136.035950 102.307114,135.845093 
	C103.336678,134.813889 104.130196,133.547028 105.005089,132.361420 
	C106.054962,131.704025 107.942398,131.141205 108.028877,130.375092 
	C109.288437,119.217194 110.167503,108.020363 102.919212,98.245537 
	C101.362511,96.146233 99.209007,94.489479 97.286469,92.036217 
	C98.516968,89.913498 99.791443,88.383423 101.065918,86.853348 
	C102.365150,87.485786 103.610619,88.329910 104.982025,88.678139 
	C105.937233,88.920685 107.065201,88.482864 108.646530,88.125122 
	C110.117920,87.601143 111.058784,87.301010 112.419632,87.000710 
	C114.518463,86.998634 116.197311,86.996727 117.876160,86.994820 
z"/>
<path fill="#1F4D3A" stroke="#1F4D3A" stroke-width="0.5" stroke-linejoin="round" 
	d="
M157.464630,112.864502 
	C152.017044,117.469200 146.151413,121.670204 141.221863,126.775146 
	C134.183762,134.063660 135.204117,146.341461 143.416779,152.980087 
	C147.872345,156.581711 153.327728,158.946503 158.253494,161.823273 
	C147.702133,161.823273 136.968506,161.823273 125.705643,161.823273 
	C124.598038,145.820129 122.739647,130.051422 137.352737,118.267548 
	C142.625229,114.015846 147.247589,108.957916 152.770294,104.225723 
	C154.737534,107.077202 156.101074,109.970848 157.464630,112.864502 
z"/>
<path fill="#1F4D3A" stroke="#1F4D3A" stroke-width="0.5" stroke-linejoin="round" 
	d="
M174.745422,86.338303 
	C178.586823,82.900810 182.495850,79.535042 186.245239,75.999947 
	C188.641312,73.740807 189.915833,71.333504 188.481506,67.610245 
	C186.764801,63.154018 188.514679,58.987682 192.100464,55.969807 
	C195.705734,52.935528 199.908035,52.425518 204.254837,54.427227 
	C208.428055,56.348991 210.037292,59.699760 210.083572,64.251457 
	C210.154495,71.226227 206.661911,75.218544 199.652451,75.963684 
	C197.820679,76.158417 195.672989,76.666771 194.351288,77.814896 
	C188.094162,83.250336 182.072952,88.957329 175.513794,94.343040 
	C171.667297,91.658028 175.223572,88.916626 174.745422,86.338303 
z"/>
<path fill="#1F4D3A" stroke="#1F4D3A" stroke-width="0.5" stroke-linejoin="round" 
	d="
M51.190239,92.487022 
	C49.523472,90.883286 47.708302,89.405479 46.219414,87.650810 
	C42.605263,83.391487 38.822086,80.822014 32.538891,81.882156 
	C26.513493,82.898811 21.533453,77.968788 20.953051,72.116203 
	C20.361725,66.153419 24.189320,60.600071 29.413137,59.841709 
	C36.643433,58.792057 43.426804,61.978069 43.517097,68.117363 
	C43.643913,76.739670 48.742023,81.658478 53.878204,87.672646 
	C52.966618,89.731491 52.078430,91.109261 51.190239,92.487022 
z"/>
<path fill="#1F4D3A" stroke="#1F4D3A" stroke-width="0.5" stroke-linejoin="round" 
	d="
M72.286499,57.006851 
	C72.081436,52.149242 71.506493,48.086735 66.078094,45.366917 
	C60.859623,42.752277 60.361431,35.333488 63.820580,30.386974 
	C67.170250,25.597008 74.405296,24.020998 79.445114,26.983496 
	C84.534203,29.974958 87.646706,37.548630 83.953384,41.499443 
	C78.039650,47.825466 79.337273,54.890636 78.770523,62.515118 
	C75.713074,63.214867 73.719589,62.925549 73.903786,59.515884 
	C73.947273,58.711010 72.855850,57.844830 72.286499,57.006851 
z"/>
<path fill="#1F4D3A" stroke="#1F4D3A" stroke-width="0.5" stroke-linejoin="round" 
	d="
M190.990967,106.182365 
	C193.483322,106.080437 195.975174,105.963432 198.468140,105.880241 
	C201.862930,105.766953 204.588928,105.340561 206.599899,101.610313 
	C209.365540,96.480225 216.866043,95.393448 221.566147,98.589417 
	C225.967834,101.582458 227.436432,107.655197 224.890472,112.335602 
	C222.058105,117.542534 214.491196,120.375542 209.903671,116.294342 
	C204.186066,111.207794 198.129868,112.483376 191.462036,111.762444 
	C191.003479,109.552338 190.997223,107.867355 190.990967,106.182365 
z"/>
<path fill="#1F4D3A" stroke="#1F4D3A" stroke-width="0.5" stroke-linejoin="round" 
	d="
M153.978470,20.950294 
	C158.579849,18.805880 162.883530,20.203047 165.459030,23.804623 
	C167.316910,26.402676 168.478134,30.707596 167.719467,33.682308 
	C166.605865,38.048531 162.354309,40.156326 157.755264,41.110592 
	C155.314285,41.617081 152.694672,42.452961 150.742920,43.920902 
	C142.337433,50.242855 134.149384,56.853954 125.489090,63.102657 
	C124.271606,61.167809 123.447205,59.490074 122.622787,57.812340 
	C124.140312,56.697910 125.657837,55.583485 127.554474,54.714447 
	C128.682983,55.329720 129.432373,55.699608 130.181778,56.069496 
	C130.028809,55.008263 129.875839,53.947033 129.722870,52.885796 
	C134.746246,48.945713 139.824921,45.072884 144.755417,41.019798 
	C146.040253,39.963612 146.863190,38.345520 148.076996,36.333534 
	C154.977737,33.802181 157.571671,28.093212 160.788101,22.697866 
	C158.255814,22.047998 156.117142,21.499147 153.978470,20.950294 
z"/>
<path fill="#1F4D3A" stroke="#1F4D3A" stroke-width="0.5" stroke-linejoin="round" 
	d="
M51.369202,92.778427 
	C52.078430,91.109261 52.966618,89.731491 54.008205,87.967087 
	C60.143906,92.796471 66.126205,98.012474 72.283844,103.545074 
	C68.533630,104.417816 68.112396,107.333832 68.011559,110.884216 
	C55.316864,111.583885 42.622478,111.865135 29.463120,111.587311 
	C29.107368,108.354797 29.216587,105.681335 29.325806,103.007881 
	C30.499792,103.680130 31.642458,104.867752 32.852829,104.941307 
	C40.953331,105.433594 49.067150,105.726471 57.180164,105.963730 
	C58.020657,105.988304 58.884209,105.224113 60.666931,104.391731 
	C57.432594,100.375969 54.490379,96.722908 51.369202,92.778427 
z"/>
<path fill="#1F4D3A" stroke="#1F4D3A" stroke-width="0.5" stroke-linejoin="round" 
	d="
M153.901123,75.217209 
	C148.143906,72.139915 146.096817,68.842995 146.939560,64.005287 
	C147.698502,59.648643 151.773682,56.031597 156.680801,55.359158 
	C161.077072,54.756729 166.032639,57.543198 168.016922,61.815620 
	C170.398392,66.943230 168.147400,70.725685 163.624603,74.050194 
	C159.678009,72.746521 156.618591,72.636612 153.901123,75.217209 
z"/>
<path fill="#1F4D3A" stroke="#1F4D3A" stroke-width="0.5" stroke-linejoin="round" 
	d="
M29.240297,102.753891 
	C29.216587,105.681335 29.107368,108.354797 28.999035,111.516602 
	C26.440378,117.316208 21.975113,119.025536 16.490816,118.214508 
	C11.125513,117.421082 8.284263,113.822823 7.488153,108.440521 
	C8.545474,109.305489 9.226560,110.456169 9.812669,111.446381 
	C13.153773,106.781548 16.373674,102.325287 19.529634,97.824181 
	C19.879549,97.325119 19.864693,96.570290 20.019009,95.934082 
	C22.688368,97.316124 25.357727,98.698166 27.836205,100.504395 
	C27.278393,101.359474 26.911463,101.790367 26.544535,102.221268 
	C26.784315,102.377502 27.024097,102.533730 27.263878,102.689964 
	C27.595055,102.043175 27.926233,101.396385 28.257412,100.749596 
	C28.556540,101.333031 28.855663,101.916473 29.240297,102.753891 
z"/>
<path fill="#1F4D3A" stroke="#1F4D3A" stroke-width="0.5" stroke-linejoin="round" 
	d="
M72.216248,57.464077 
	C72.855850,57.844830 73.947273,58.711010 73.903786,59.515884 
	C73.719589,62.925549 75.713074,63.214867 78.685562,62.972309 
	C78.431686,67.138977 80.472031,70.102692 83.511421,72.525864 
	C89.278130,77.123398 95.104103,81.646599 100.985687,86.527016 
	C99.791443,88.383423 98.516968,89.913498 97.106110,91.756378 
	C90.699837,87.250359 84.541428,82.276276 78.121254,77.666779 
	C73.774925,74.546257 72.050819,70.491707 72.165283,65.358055 
	C72.220512,62.880512 72.156181,60.400303 72.216248,57.464077 
z"/>
<path fill="#1F4D3A" stroke="#1F4D3A" stroke-width="0.5" stroke-linejoin="round" 
	d="
M106.551445,26.158718 
	C102.482094,23.012438 100.654228,19.121950 102.710365,14.064181 
	C104.482124,9.705938 108.604736,7.313273 113.439850,7.814339 
	C118.280319,8.315959 121.491882,11.081472 122.356049,15.735852 
	C122.763458,17.930201 121.645248,20.407808 120.541779,22.910557 
	C114.578247,20.442823 110.099426,21.298445 106.551445,26.158718 
z"/>
<path fill="#1F4D3A" stroke="#1F4D3A" stroke-width="0.5" stroke-linejoin="round" 
	d="
M157.611206,112.887917 
	C156.101074,109.970848 154.737534,107.077202 153.025818,104.023636 
	C153.503540,98.539299 154.329437,93.214874 155.612518,87.442200 
	C157.648483,88.326553 159.227234,89.659164 160.806000,90.991776 
	C161.592697,92.487350 160.410553,95.777664 164.532272,94.871193 
	C166.470673,96.824455 167.987701,98.523819 169.504730,100.223175 
	C168.646469,101.532265 167.788223,102.841347 166.624664,104.616096 
	C168.087524,105.128304 169.198563,105.517311 170.656830,106.445580 
	C170.999435,108.704697 170.994812,110.424561 170.990204,112.144424 
	C167.326080,112.356918 163.661957,112.569412 159.455444,112.442825 
	C158.611313,112.319572 158.309570,112.535416 158.007843,112.751259 
	C158.007843,112.751259 157.757797,112.911331 157.611206,112.887917 
z"/>
<path fill="#1F4D3A" stroke="#1F4D3A" stroke-width="0.5" stroke-linejoin="round" 
	d="
M106.768295,26.523933 
	C110.099426,21.298445 114.578247,20.442823 120.292191,23.136477 
	C111.887413,30.254465 115.963463,39.615074 116.275955,48.275879 
	C116.358551,50.564964 116.840942,52.839622 116.733253,55.557587 
	C113.734444,54.656502 111.142136,53.318741 108.549820,51.980980 
	C108.413315,45.513023 108.353737,39.041958 108.092827,32.579021 
	C108.015785,30.670601 107.370193,28.785133 106.768295,26.523933 
z"/>
<path fill="#1F4D3A" stroke="#1F4D3A" stroke-width="0.5" stroke-linejoin="round" 
	d="
M108.433289,52.437218 
	C111.142136,53.318741 113.734444,54.656502 116.694916,55.997559 
	C117.326317,56.510071 117.589554,57.019287 117.873123,58.158989 
	C112.256187,68.378654 112.256187,68.378654 117.246574,73.575127 
	C117.246574,73.575127 117.328278,73.814972 116.825676,73.906097 
	C113.808723,74.664116 111.294373,75.331009 108.780029,75.997910 
	C108.625603,68.296425 108.471176,60.594940 108.433289,52.437218 
z"/>
<path fill="#1F4D3A" stroke="#1F4D3A" stroke-width="0.5" stroke-linejoin="round" 
	d="
M153.619629,20.951244 
	C156.117142,21.499147 158.255814,22.047998 160.788101,22.697866 
	C157.571671,28.093212 154.977737,33.802181 148.056381,35.985886 
	C144.725983,29.482569 146.365784,24.828175 153.619629,20.951244 
z"/>
<path fill="#1F4D3A" stroke="#1F4D3A" stroke-width="0.5" stroke-linejoin="round" 
	d="
M171.450439,112.243561 
	C170.994812,110.424561 170.999435,108.704697 171.005463,106.556129 
	C177.360413,106.092278 183.713959,106.057137 190.529236,106.102180 
	C190.997223,107.867355 191.003479,109.552338 191.007568,111.659378 
	C184.640503,112.168518 178.275589,112.255608 171.450439,112.243561 
z"/>
<path fill="#1F4D3A" stroke="#1F4D3A" stroke-width="0.5" stroke-linejoin="round" 
	d="
M117.493530,73.318352 
	C112.256187,68.378654 112.256187,68.378654 117.930595,58.442413 
	C119.255989,58.044331 120.544235,57.993305 122.227646,57.877312 
	C123.447205,59.490074 124.271606,61.167809 125.173752,63.261040 
	C122.747833,66.804878 120.244164,69.933228 117.493530,73.318352 
z"/>
<path fill="#1F4D3A" stroke="#1F4D3A" stroke-width="0.5" stroke-linejoin="round" 
	d="
M19.725212,95.769531 
	C19.864693,96.570290 19.879549,97.325119 19.529634,97.824181 
	C16.373674,102.325287 13.153773,106.781548 9.812669,111.446381 
	C9.226560,110.456169 8.545474,109.305489 7.539869,108.078827 
	C7.091941,99.740158 10.735493,96.042381 19.725212,95.769531 
z"/>
<path fill="#1F4D3A" stroke="#1F4D3A" stroke-width="0.5" stroke-linejoin="round" 
	d="
M160.881531,90.534912 
	C159.227234,89.659164 157.648483,88.326553 155.705750,86.992462 
	C154.974106,83.312141 154.606415,79.633293 154.069931,75.585831 
	C156.618591,72.636612 159.678009,72.746521 163.327606,74.165726 
	C159.355438,78.914856 161.599747,84.752457 160.881531,90.534912 
z"/>
<path fill="#1F4D3A" stroke="#1F4D3A" stroke-width="0.5" stroke-linejoin="round" 
	d="
M108.664413,76.431000 
	C111.294373,75.331009 113.808723,74.664116 116.737228,73.996796 
	C117.393112,77.394180 117.634842,80.791969 117.684402,84.700912 
	C117.606644,85.472771 117.721069,85.733482 117.835495,85.994186 
	C117.891251,86.158974 117.947006,86.323753 117.939461,86.741684 
	C116.197311,86.996727 114.518463,86.998634 112.380440,86.647446 
	C110.873001,85.532516 109.824738,84.770683 108.776466,84.008858 
	C108.700577,81.627274 108.624695,79.245689 108.664413,76.431000 
z"/>
<path fill="#1F4D3A" stroke="#1F4D3A" stroke-width="0.5" stroke-linejoin="round" 
	d="
M169.783478,100.087738 
	C167.987701,98.523819 166.470673,96.824455 164.892242,94.736374 
	C167.924164,91.781990 171.017517,89.216331 174.428146,86.494492 
	C175.223572,88.916626 171.667297,91.658028 175.192276,94.498909 
	C173.570511,96.570290 171.816376,98.261299 169.783478,100.087738 
z"/>
<path fill="#1F4D3A" stroke="#1F4D3A" stroke-width="0.5" stroke-linejoin="round" 
	d="
M97.810432,149.237930 
	C98.814796,150.647568 99.608246,152.289734 100.401695,153.931885 
	C98.599792,154.246094 96.797897,154.560303 94.824242,154.496460 
	C95.634819,152.569092 96.617165,151.019775 97.810432,149.237930 
z"/>
<path fill="#1F4D3A" stroke="#1F4D3A" stroke-width="0.5" stroke-linejoin="round" 
	d="
M104.780067,132.157776 
	C104.130196,133.547028 103.336678,134.813889 102.307114,135.845093 
	C102.116570,136.035950 100.334641,135.119553 100.369102,134.978455 
	C100.691719,133.657562 101.250175,132.394287 102.100327,130.944504 
	C103.158508,131.167831 103.856773,131.560989 104.780067,132.157776 
z"/>
<path fill="#1F4D3A" stroke="#1F4D3A" stroke-width="0.5" stroke-linejoin="round" 
	d="
M108.638046,84.370567 
	C109.824738,84.770683 110.873001,85.532516 111.960449,86.647614 
	C111.058784,87.301010 110.117920,87.601143 108.783104,87.857468 
	C108.425972,86.786530 108.462799,85.759399 108.638046,84.370567 
z"/>
<path fill="#1F4D3A" stroke="#1F4D3A" stroke-width="0.5" stroke-linejoin="round" 
	d="
M129.484161,52.914047 
	C129.875839,53.947033 130.028809,55.008263 130.181778,56.069496 
	C129.432373,55.699608 128.682983,55.329720 127.887955,54.586349 
	C128.310043,53.789349 128.777756,53.365822 129.484161,52.914047 
z"/>
<path fill="#1F4D3A" stroke="#1F4D3A" stroke-width="0.5" stroke-linejoin="round" 
	d="
M85.656265,160.053131 
	C86.009033,160.416275 86.014206,160.795746 86.020279,161.459930 
	C85.118637,161.791046 84.216095,161.837463 82.277321,161.937134 
	C83.856514,160.964172 84.582588,160.516830 85.656265,160.053131 
z"/>
<path fill="#1F4D3A" stroke="#1F4D3A" stroke-width="0.5" stroke-linejoin="round" 
	d="
M94.890930,123.667427 
	C94.394829,123.641190 93.771416,123.331490 93.190796,122.683838 
	C93.743614,122.691910 94.253616,123.037941 94.890930,123.667427 
z"/>
<path fill="#1F4D3A" stroke="#1F4D3A" stroke-width="0.5" stroke-linejoin="round" 
	d="
M158.286530,112.786186 
	C158.309570,112.535416 158.611313,112.319572 159.005402,112.373154 
	C158.920242,112.702087 158.742722,112.761597 158.286530,112.786186 
z"/>
<path fill="#1F4D3A" stroke="#1F4D3A" stroke-width="0.5" stroke-linejoin="round" 
	d="
M117.899452,85.744949 
	C117.721069,85.733482 117.606644,85.472771 117.632591,85.114845 
	C117.836449,85.176994 117.899925,85.336357 117.899452,85.744949 
z"/>
<path fill="#1F4D3A" stroke="#1F4D3A" stroke-width="0.5" stroke-linejoin="round" 
	d="
M28.129009,100.871651 
	C27.926233,101.396385 27.595055,102.043175 27.263878,102.689964 
	C27.024097,102.533730 26.784315,102.377502 26.544535,102.221268 
	C26.911463,101.790367 27.278393,101.359474 27.946966,100.834229 
	C28.248610,100.739883 28.000608,100.993706 28.129009,100.871651 
z"/>
</svg>